<?xml version="1.0" standalone="no"?>
<!DOCTYPE svg PUBLIC "-//W3C//DTD SVG 20010904//EN"
 "http://www.w3.org/TR/2001/REC-SVG-20010904/DTD/svg10.dtd">
<svg version="1.0" xmlns="http://www.w3.org/2000/svg"
 width="640.000000pt" height="640.000000pt" viewBox="0 0 640.000000 640.000000"
 preserveAspectRatio="xMidYMid meet">
<metadata>
Created by potrace 1.14, written by Peter Selinger 2001-2017
</metadata>
<g transform="translate(0.000000,640.000000) scale(0.100000,-0.100000)"
fill="#000000" stroke="none">
<path d="M5443 6389 c-13 -5 -23 -7 -23 -5 0 10 -136 -45 -186 -75 -69 -41
-166 -136 -209 -204 -43 -68 -82 -167 -94 -243 -26 -164 16 -362 104 -476 19
-25 35 -48 35 -51 0 -4 56 -59 87 -85 155 -131 362 -176 578 -126 139 32 279
135 375 276 24 36 43 65 41 65 -2 0 4 18 14 40 45 106 57 283 27 413 -5 24
-29 83 -53 130 -69 141 -200 258 -354 318 -11 4 -27 9 -35 10 -8 1 -26 6 -40
10 -37 10 -242 13 -267 3z"/>
<path d="M160 3235 c0 -2941 1 -3095 18 -3096 74 -3 946 2 952 6 3 2 6 538 6
1190 -1 653 1 1190 4 1194 3 3 298 7 655 7 569 1 750 5 830 20 11 2 31 6 45 8
14 3 43 8 64 11 135 19 454 126 561 187 11 7 49 28 85 48 57 32 135 80 165
102 249 186 398 349 548 603 16 27 74 149 96 200 5 11 14 34 22 50 7 17 13 32
14 35 0 3 8 30 18 60 9 30 17 60 18 65 1 6 7 30 14 55 7 25 16 61 19 80 3 19
8 46 11 59 19 97 26 423 12 541 -32 269 -115 511 -255 745 -36 59 -44 72 -69
100 -7 7 -13 17 -13 20 0 4 -17 28 -37 53 -206 256 -449 440 -761 576 -56 25
-105 45 -107 46 -7 1 -33 9 -52 17 -10 3 -22 7 -28 9 -5 1 -44 12 -85 24 -86
24 -100 27 -154 36 -22 3 -43 7 -47 10 -4 2 -26 6 -50 9 -24 3 -60 8 -79 12
-19 4 -572 8 -1227 10 l-1193 4 0 -3096z m2330 2152 c20 -3 58 -11 150 -32 49
-11 212 -84 218 -97 2 -5 8 -8 14 -8 38 0 298 -232 298 -266 0 -3 10 -20 23
-37 51 -72 98 -175 122 -267 16 -59 22 -90 18 -90 -3 0 -1 -6 5 -12 10 -13 10
-275 -1 -315 -61 -235 -136 -373 -278 -513 -121 -120 -271 -204 -449 -250 -47
-13 -68 -17 -135 -25 -58 -8 -1325 -9 -1332 -1 -6 6 -11 1877 -5 1906 3 14 80
15 665 14 364 -1 673 -4 687 -7z"/>
<path d="M5090 2258 c0 -1687 3 -2118 13 -2119 16 -1 906 -1 930 0 16 1 17
109 17 2119 l0 2118 -480 0 -480 0 0 -2118z"/>
</g>
</svg>
